<!--log.svg-->
    <svg xmlns="http://www.w3.org/2000/svg" width="16" height="16" viewBox="0 0 105 105" class="looka-1j8o68f">
                <!-- <defs id="SvgjsDefs2247"></defs> -->
                <g class="logo-cup" id="SvgjsG2248" featurekey="symbolFeature-0" transform="matrix(0.08333333333333334,0,0,0.08333333333333334,0,3)" fill="currentColor">
                    <g id="SvgjsG3238">
                    <path class="st0" d="M600,0C269.2,0,0,269.2,0,600s269.2,600,600,600s600-269.2,600-600S930.8,0,600,0z M600,1179   c-319.2,0-579-259.8-579-579S280.7,21,600,21s579,259.7,579,579S919.3,1179,600,1179L600,1179z" fill="currentColor" >
                    </path>
                    <path class="st0" d="M1103.9,767.2c-4.8-23.7-18.9-44.5-39.2-57.7l-84.1-55.3c-7.1-4.7-14.9-8.3-23-10.8   c16.8-46.5,25.4-95.5,25.4-144.9c0-237.1-192.9-429.9-429.9-429.9S123.3,261.4,123.3,498.5s192.9,429.9,429.9,429.9   c117.8,0,230.8-49,312-134.8c4.6,4.9,9.7,9.2,15.3,12.9l84,55.3c42.1,27.7,98.6,16,126.2-26.1   C1104.1,815.5,1108.8,790.8,1103.9,767.2L1103.9,767.2z M1073.2,824.2c-21.3,32.3-64.8,41.3-97.1,20l-84-55.3   c-7-4.7-13.1-10.6-18-17.4c-1.9-2.6-4.8-4.2-8-4.3c-2.6-0.3-6.2,1.1-8.4,3.5C780,857.5,669,907.4,553.2,907.4   c-225.4,0-408.9-183.4-408.9-408.9S327.7,89.6,553.2,89.6S962.1,273,962.1,498.5c-0.1,50.8-9.6,101.2-28.3,148.5   c-2.1,5.4,0.5,11.5,5.9,13.6c0.7,0.3,1.4,0.5,2.2,0.6c9.7,1.6,18.9,5.1,27.2,10.5l84.1,55.3   C1085.5,748.3,1094.5,791.8,1073.2,824.2L1073.2,824.2z" fill="currentColor">   
                    </path>
                    <path class="st0" d="M553.2,150.1c-193.6,0-351.1,157.5-351.1,351.1s157.5,351.1,351.1,351.1s351.1-157.5,351.1-351   S746.7,150.1,553.2,150.1z M367.8,524.2c5.1,69.9,45.8,122.3,114.4,147.6c37.9,14,87.5,12.4,121.5-4.6   c27.5-13.7,45.7-36.3,52.7-65.4c8.3-34.7-0.9-75.6-23.9-106.7c-17.9-24.2-53.1-41.1-85.4-41.1c-34.2,0-58.8,18.5-65.7,49.4   c-3.8,16.6,0.4,34.4,11.9,50.2c9.7,13.5,23.6,24.3,40.1,31.6c-4.7,0.6-9.5,1-14.3,1c-24.1,0-56-8.6-70.5-49.7   c-8.3-23.5-2.1-55.9,15.5-80.7c31.4-44.3,89.2-53.8,153.5-22.7c34.9,16.8,60.2,47.2,71.3,85.6c11.3,38.7,6.1,79.8-14.2,112.5   c-40.9,65.9-110.2,75.7-147.8,75.7c-18.2,0-36.5-2.4-50.2-6.5C398.6,677,344,607.6,337.3,523.5c-8-101.2,52.5-191.1,147.1-218.5   c7.4-2.2,27.9-7.1,58.7-7.1c36.2,0,104.2,7.5,152.5,57.6c25.3,26.2,42.1,60.8,50.2,103.2c-28.4-60-84.6-132.2-190.8-132.2   c-19.9,0.1-39.7,2.4-59.2,6.8C417.4,350.5,361.2,434.4,367.8,524.2z" fill="currentColor">
                    </path>
                    </g>
                </g>
                </svg>